<?xml version="1.0" encoding="UTF-8"?><svg id="Layer_1" xmlns="http://www.w3.org/2000/svg" viewBox="0 0 400 400" preserveAspectRatio="none"><defs><style>.cls-1{fill:#228b22;}</style></defs><path class="cls-1" d="M200,72c34.19,0,66.33,13.31,90.51,37.49,24.18,24.18,37.49,56.32,37.49,90.51s-13.31,66.33-37.49,90.51c-24.18,24.18-56.32,37.49-90.51,37.49s-66.33-13.31-90.51-37.49c-24.18-24.18-37.49-56.32-37.49-90.51s13.31-66.33,37.49-90.51c24.18-24.18,56.32-37.49,90.51-37.49m0-72C89.54,0,0,89.54,0,200s89.54,200,200,200,200-89.54,200-200S310.46,0,200,0h0Z"/></svg>